<svg width="44" height="58" viewBox="0 0 44 58" fill="none" xmlns="http://www.w3.org/2000/svg">
<path d="M0.975 52.2V5.8C0.975 2.99715 3.24715 0.725 6.04999 0.725H26.205C27.5081 0.725 28.7613 1.22628 29.705 2.125L41.45 13.3107C42.4558 14.2686 43.025 15.5968 43.025 16.9857V52.2C43.025 55.0028 40.7528 57.275 37.95 57.275H6.05C3.24715 57.275 0.975 55.0028 0.975 52.2Z" fill="white" stroke="#E5E9EB" stroke-width="1.45"/>
<path fill-rule="evenodd" clip-rule="evenodd" d="M13.3 20.2994C13.3 19.5303 13.6056 18.7927 14.1494 18.2488C14.6933 17.7049 15.4309 17.3994 16.2 17.3994H22.8497C23.6188 17.3996 24.3563 17.7052 24.9 18.2491L29.8503 23.1994C30.3942 23.7431 30.6999 24.4806 30.7 25.2497V37.6994C30.7 38.4685 30.3945 39.2062 29.8507 39.75C29.3068 40.2939 28.5692 40.5994 27.8 40.5994H16.2C15.4309 40.5994 14.6933 40.2939 14.1494 39.75C13.6056 39.2062 13.3 38.4685 13.3 37.6994V20.2994ZM16.2 28.9994C16.2 28.6149 16.3528 28.246 16.6247 27.9741C16.8967 27.7022 17.2655 27.5494 17.65 27.5494H26.35C26.7346 27.5494 27.1034 27.7022 27.3754 27.9741C27.6473 28.246 27.8 28.6149 27.8 28.9994C27.8 29.384 27.6473 29.7528 27.3754 30.0247C27.1034 30.2966 26.7346 30.4494 26.35 30.4494H17.65C17.2655 30.4494 16.8967 30.2966 16.6247 30.0247C16.3528 29.7528 16.2 29.384 16.2 28.9994ZM17.65 33.3494C17.2655 33.3494 16.8967 33.5022 16.6247 33.7741C16.3528 34.046 16.2 34.4149 16.2 34.7994C16.2 35.184 16.3528 35.5528 16.6247 35.8247C16.8967 36.0966 17.2655 36.2494 17.65 36.2494H26.35C26.7346 36.2494 27.1034 36.0966 27.3754 35.8247C27.6473 35.5528 27.8 35.184 27.8 34.7994C27.8 34.4149 27.6473 34.046 27.3754 33.7741C27.1034 33.5022 26.7346 33.3494 26.35 33.3494H17.65Z" fill="#4094F7"/>
</svg>
