<svg width="74" height="74" viewBox="0 0 74 74" fill="none" xmlns="http://www.w3.org/2000/svg">
<path d="M60.125 74H13.875C10.1951 74 6.66596 72.5382 4.06389 69.9361C1.46183 67.334 0 63.8049 0 60.125L0 13.875C0 10.1951 1.46183 6.66596 4.06389 4.06389C6.66596 1.46183 10.1951 0 13.875 0L60.125 0C63.8049 0 67.334 1.46183 69.9361 4.06389C72.5382 6.66596 74 10.1951 74 13.875V60.125C74 63.8049 72.5382 67.334 69.9361 69.9361C67.334 72.5382 63.8049 74 60.125 74Z" fill="#F5F7F7"/>
<path d="M52.2879 41.8657C51.3006 40.8759 50.123 40.0963 48.8261 39.574C48.6343 39.4959 48.4248 39.4719 48.2203 39.5046C46.2611 39.7959 44.2607 39.611 42.3881 38.9658L43.1813 38.1726C43.4445 37.9107 43.6361 37.5857 43.7378 37.2286C43.8394 36.8714 43.8477 36.4942 43.7618 36.133C43.6776 35.7715 43.5019 35.4377 43.2517 35.1635C43.0015 34.8894 42.685 34.6841 42.3326 34.5674L40.1381 33.8922L39.3773 31.6121C39.1368 30.8906 38.554 30.3564 37.814 30.1806C37.074 30.0049 36.3109 30.2246 35.7744 30.7611L34.9812 31.5542C34.3369 29.6814 34.1521 27.6812 34.4424 25.7221C34.4741 25.5168 34.4501 25.3068 34.373 25.1139C33.8512 23.8175 33.0716 22.6405 32.0813 21.6544C28.6681 18.2412 23.2591 17.6492 19.2192 20.2438C19.0658 20.3398 18.9372 20.4707 18.8439 20.6258C18.7507 20.781 18.6954 20.9559 18.6825 21.1365C18.6697 21.317 18.6996 21.498 18.77 21.6648C18.8403 21.8315 18.9491 21.9793 19.0874 22.0961C20.6529 23.3894 21.6657 25.2316 21.9189 27.2464C22.172 29.2613 21.6464 31.2967 20.4494 32.9371C20.3501 33.0757 20.2824 33.2344 20.2512 33.402C20.2199 33.5696 20.2259 33.742 20.2687 33.907C20.3115 34.0721 20.3901 34.2257 20.4988 34.357C20.6076 34.4883 20.7439 34.5941 20.8981 34.6669C22.6263 35.4631 24.0173 36.845 24.8247 38.568C25.5171 40.063 25.7348 41.7343 25.4482 43.3568C25.1617 44.9793 24.3848 46.4749 23.2221 47.6423C23.0115 47.8604 22.895 48.1524 22.8976 48.4556C22.9002 48.7588 23.0218 49.0488 23.2362 49.2632C23.4506 49.4775 23.7406 49.5991 24.0438 49.6018C24.3469 49.6044 24.639 49.4879 24.8571 49.2772C26.2049 47.9118 28.0007 47.0794 29.9138 46.9332C31.8268 46.787 33.7283 47.337 35.2679 48.4817C35.6079 48.7222 35.9177 48.9812 36.2137 49.2772C36.8821 49.9455 37.4255 50.7272 37.8302 51.6013C37.9012 51.7571 38.006 51.8952 38.137 52.0054C38.2681 52.1156 38.4221 52.1952 38.5877 52.2384C38.7534 52.2816 38.9267 52.2873 39.0949 52.2551C39.263 52.2229 39.4219 52.1536 39.5599 52.0522C41.1017 50.9262 42.9965 50.391 44.8996 50.5442C46.8026 50.6975 48.5874 51.5288 49.9292 52.8871C50.5489 53.5068 51.06 54.2121 51.4462 54.9845C51.5357 55.163 51.6698 55.3154 51.8355 55.4268C52.0012 55.5382 52.1929 55.6049 52.392 55.6204L52.4799 55.6227C52.6646 55.6223 52.8466 55.5779 53.0107 55.493C53.1748 55.4081 53.3163 55.2853 53.4234 55.1348C54.8365 53.147 55.498 50.722 55.2901 48.2919C55.0822 45.8619 54.0183 43.5845 52.2879 41.8657Z" fill="#4D90F0"/>
</svg>
