<svg width="16" height="16" viewBox="0 0 16 16" fill="none" xmlns="http://www.w3.org/2000/svg">
<path d="M8.0513 10.4487H5.43676V5.21966H8.0513C9.49524 5.21966 10.6658 6.39023 10.6658 7.83421C10.6658 9.27815 9.49524 10.4487 8.0513 10.4487ZM6.74403 6.52693V9.14148H8.0513C8.7733 9.14148 9.35857 8.55621 9.35857 7.83421C9.35857 7.1122 8.7733 6.52693 8.0513 6.52693H6.74403ZM10.0122 2.60512H3.47585V13.0633H12.6267V5.21966H10.0122V2.60512ZM2.16858 1.94613C2.16858 1.5881 2.46107 1.29785 2.82123 1.29785H10.6658L13.9338 4.56603L13.934 13.712C13.934 14.0757 13.6432 14.3706 13.2847 14.3706H2.8179C2.45929 14.3706 2.16858 14.073 2.16858 13.7223V1.94613Z" fill="#2586F8"/>
</svg>
