<svg width="19" height="19" viewBox="0 0 19 19" fill="none" xmlns="http://www.w3.org/2000/svg">
<path d="M17.7446 10.2432V3.24316C17.7446 2.13859 16.8492 1.24316 15.7446 1.24316H3.74463C2.64006 1.24316 1.74463 2.13859 1.74463 3.24316V10.2432M17.7446 10.2432V15.2432C17.7446 16.3477 16.8492 17.2432 15.7446 17.2432H3.74463C2.64006 17.2432 1.74463 16.3477 1.74463 15.2432V10.2432M17.7446 10.2432H15.1588C14.8936 10.2432 14.6393 10.3485 14.4517 10.5361L12.0375 12.9503C11.85 13.1378 11.5956 13.2432 11.3304 13.2432H8.15884C7.89363 13.2432 7.63927 13.1378 7.45174 12.9503L5.03752 10.5361C4.84999 10.3485 4.59563 10.2432 4.33042 10.2432H1.74463" stroke="#4D90F0" stroke-width="2" stroke-linecap="round" stroke-linejoin="round"/>
</svg>
