<svg width="35" height="41" viewBox="0 0 35 41" fill="none" xmlns="http://www.w3.org/2000/svg">
<path fill-rule="evenodd" clip-rule="evenodd" d="M0 1.25859C0 0.733924 0.425329 0.308594 0.95 0.308594L20 0.308594L35 15.3086V39.3586C35 39.8833 34.5747 40.3086 34.05 40.3086H0.950001C0.42533 40.3086 0 39.8833 0 39.3586V1.25859Z" fill="#34A770"/>
<path d="M11.0914 34.1992L9.58144 31.8492L8.21144 34.1992H6.63144L8.83144 30.6792L6.60144 27.2192H8.21144L9.72144 29.5592L11.0814 27.2192H12.6614L10.4714 30.7292L12.7014 34.1992H11.0914ZM15.6669 33.0892H17.9669V34.1992H14.2669V27.2192H15.6669V33.0892ZM21.7667 34.2692C21.2801 34.2692 20.8401 34.1859 20.4467 34.0192C20.0601 33.8526 19.7534 33.6126 19.5267 33.2992C19.3001 32.9859 19.1834 32.6159 19.1767 32.1892H20.6767C20.6967 32.4759 20.7967 32.7026 20.9767 32.8692C21.1634 33.0359 21.4167 33.1192 21.7367 33.1192C22.0634 33.1192 22.3201 33.0426 22.5067 32.8892C22.6934 32.7292 22.7867 32.5226 22.7867 32.2692C22.7867 32.0626 22.7234 31.8926 22.5967 31.7592C22.4701 31.6259 22.3101 31.5226 22.1167 31.4492C21.9301 31.3692 21.6701 31.2826 21.3367 31.1892C20.8834 31.0559 20.5134 30.9259 20.2267 30.7992C19.9467 30.6659 19.7034 30.4692 19.4967 30.2092C19.2967 29.9426 19.1967 29.5892 19.1967 29.1492C19.1967 28.7359 19.3001 28.3759 19.5067 28.0692C19.7134 27.7626 20.0034 27.5292 20.3767 27.3692C20.7501 27.2026 21.1767 27.1192 21.6567 27.1192C22.3767 27.1192 22.9601 27.2959 23.4067 27.6492C23.8601 27.9959 24.1101 28.4826 24.1567 29.1092H22.6167C22.6034 28.8692 22.5001 28.6726 22.3067 28.5192C22.1201 28.3592 21.8701 28.2792 21.5567 28.2792C21.2834 28.2792 21.0634 28.3492 20.8967 28.4892C20.7367 28.6292 20.6567 28.8326 20.6567 29.0992C20.6567 29.2859 20.7167 29.4426 20.8367 29.5692C20.9634 29.6892 21.1167 29.7892 21.2967 29.8692C21.4834 29.9426 21.7434 30.0292 22.0767 30.1292C22.5301 30.2626 22.9001 30.3959 23.1867 30.5292C23.4734 30.6626 23.7201 30.8626 23.9267 31.1292C24.1334 31.3959 24.2367 31.7459 24.2367 32.1792C24.2367 32.5526 24.1401 32.8992 23.9467 33.2192C23.7534 33.5392 23.4701 33.7959 23.0967 33.9892C22.7234 34.1759 22.2801 34.2692 21.7667 34.2692Z" fill="white"/>
<path fill-rule="evenodd" clip-rule="evenodd" d="M20 0.308594L35 15.3086H20.95C20.4253 15.3086 20 14.8833 20 14.3586V0.308594Z" fill="#258859"/>
</svg>
